<svg width="101" height="100" viewBox="0 0 101 100" fill="none" xmlns="http://www.w3.org/2000/svg">
<path d="M50.2891 66.667C57.1926 66.667 62.7891 61.0706 62.7891 54.167C62.7891 47.2634 57.1926 41.667 50.2891 41.667C43.3855 41.667 37.7891 47.2634 37.7891 54.167C37.7891 61.0706 43.3855 66.667 50.2891 66.667Z" stroke="#666666" stroke-width="1.5"/>
<path d="M8.62244 55.6835C8.62244 42.9127 8.62244 36.5294 11.7433 31.946C13.0998 29.9543 14.8357 28.2496 16.8516 26.9294C19.8516 24.9585 23.6099 24.2544 29.3641 24.0044C32.1099 24.0044 34.4724 21.9627 35.0099 19.3169C35.4207 17.3788 36.488 15.642 38.0314 14.4C39.5748 13.158 41.4997 12.4869 43.4808 12.5002H57.0974C61.2141 12.5002 64.7599 15.3544 65.5683 19.3169C66.1058 21.9627 68.4683 24.0044 71.2141 24.0044C76.9641 24.2544 80.7224 24.9627 83.7266 26.9294C85.7474 28.2544 87.4849 29.9585 88.8349 31.946C91.9558 36.5294 91.9558 42.9127 91.9558 55.6835C91.9558 68.4544 91.9558 74.8335 88.8349 79.421C87.4784 81.4127 85.7425 83.1174 83.7266 84.4377C79.0558 87.5002 72.5516 87.5002 59.5474 87.5002H41.0308C28.0266 87.5002 21.5224 87.5002 16.8516 84.4377C14.8368 83.1158 13.1023 81.4096 11.7474 79.4169C10.8422 78.0685 10.1755 76.5745 9.7766 75.0002M79.4558 41.6669H75.2891" stroke="#666666" stroke-width="1.5" stroke-linecap="round"/>
</svg>
