<svg width="100" height="100" viewBox="0 0 100 100" fill="none" xmlns="http://www.w3.org/2000/svg">
<circle cx="50" cy="50" r="50" fill="#D9D9D9"/>
<path d="M52.6663 64.5832C52.8017 64.0415 52.8017 63.3644 52.8017 62.6873C52.8017 62.0103 52.8017 61.4686 52.6663 60.7915L56.458 58.0832C56.8642 57.8123 56.9996 57.2707 56.7288 56.8644L53.0725 50.6353C52.8017 50.229 52.3955 50.0936 51.9892 50.229L47.7913 52.2603C46.8434 51.4478 45.76 50.9061 44.5413 50.3644L44.135 45.7603C44.135 45.354 43.7288 44.9478 43.3225 44.9478H36.1455C35.7392 44.9478 35.333 45.354 35.333 45.7603L34.7913 50.4998C33.5725 50.9061 32.6246 51.5832 31.5413 52.3957L27.3434 50.4998C26.9371 50.3644 26.3955 50.4998 26.26 50.9061L22.6038 57.1353C22.333 57.5415 22.4684 58.0832 22.8746 58.354L26.6663 61.0623C26.5309 61.604 26.5309 62.2811 26.5309 62.9582C26.5309 63.6353 26.5309 64.1769 26.6663 64.854L22.8746 67.5623C22.4684 67.8332 22.333 68.3748 22.6038 68.7811L26.26 75.0103C26.5309 75.4165 26.9371 75.5519 27.3434 75.4165L31.5413 73.5207C32.4892 74.3332 33.5725 74.8748 34.7913 75.4165L35.1975 80.0207C35.1975 80.4269 35.6038 80.8332 36.01 80.8332H43.1871C43.5934 80.8332 43.9996 80.4269 43.9996 80.0207L44.4059 75.4165C45.6246 75.0103 46.5725 74.3332 47.6559 73.5207L51.8538 75.4165C52.26 75.5519 52.8017 75.4165 52.9371 75.0103L56.5934 68.7811C56.8642 68.3748 56.7288 67.8332 56.3225 67.5623L52.6663 64.5832ZM39.6663 69.4582C35.8746 69.4582 32.8955 66.479 32.8955 62.6873C32.8955 58.8957 35.8746 55.9165 39.6663 55.9165C43.458 55.9165 46.4371 58.8957 46.4371 62.6873C46.4371 66.479 43.458 69.4582 39.6663 69.4582Z" fill="#0A6E58"/>
<path d="M74.7399 38.7189C74.8753 38.0418 74.8753 37.5002 74.8753 36.9585C74.8753 36.4168 74.8753 35.8752 74.7399 35.1981L78.1253 32.7606C78.5315 32.4897 78.5315 32.0835 78.3961 31.6772L75.0107 25.8543C74.7399 25.4481 74.3336 25.3127 73.9274 25.5835L70.0003 27.3439C69.0524 26.6668 68.1044 26.1252 67.0211 25.5835L66.6149 21.3856C66.7503 20.9793 66.4794 20.7085 66.0732 20.7085H59.4378C59.0315 20.7085 58.6253 20.9793 58.6253 21.3856L58.219 25.5835C57.1357 25.9897 56.1878 26.5314 55.2399 27.3439L51.3128 25.5835C50.9065 25.4481 50.5003 25.5835 50.2294 25.8543L46.844 31.6772C46.5732 32.0835 46.7086 32.4897 47.1149 32.7606L50.5003 35.1981V36.9585C50.5003 37.5002 50.5003 38.0418 50.6357 38.7189L47.2503 41.1564C46.844 41.4272 46.844 41.8335 46.9794 42.2397L50.3649 48.0627C50.6357 48.4689 51.0419 48.6043 51.4482 48.3335L55.3753 46.5731C56.3232 47.2502 57.2711 47.7918 58.3544 48.3335L58.7607 52.5314C58.7607 52.9377 59.1669 53.2085 59.5732 53.2085H66.2086C66.6149 53.2085 67.0211 52.9377 67.0211 52.5314L67.4274 48.3335C68.5107 47.9272 69.4586 47.3856 70.4065 46.5731L74.3336 48.3335C74.7399 48.4689 75.1461 48.3335 75.4169 48.0627L78.8024 42.2397C79.0732 41.8335 78.9378 41.4272 78.5315 41.1564L74.7399 38.7189ZM62.6878 43.7293C58.8961 43.7293 55.9169 40.7502 55.9169 36.9585C55.9169 33.1668 58.8961 30.1877 62.6878 30.1877C66.4794 30.1877 69.4586 33.1668 69.4586 36.9585C69.4586 40.7502 66.4794 43.7293 62.6878 43.7293Z" fill="#0A6E58"/>
</svg>
