<svg width="20" height="17" viewBox="0 0 20 17" fill="none" xmlns="http://www.w3.org/2000/svg">
<path d="M19.4393 8.4545L17.1893 3.2045C17.1314 3.06962 17.0353 2.95466 16.9128 2.87387C16.7903 2.79309 16.6468 2.75002 16.5 2.75H14.25V1.25C14.25 1.05109 14.171 0.860322 14.0303 0.71967C13.8897 0.579018 13.6989 0.5 13.5 0.5H1.50001V2H12.75V11.417C12.4085 11.6157 12.1095 11.8799 11.8704 12.1945C11.6313 12.509 11.4566 12.8678 11.3565 13.25H6.64351C6.46096 12.543 6.02683 11.9269 5.4225 11.517C4.81817 11.1072 4.08512 10.9319 3.36076 11.0239C2.6364 11.1159 1.97046 11.4689 1.48777 12.0168C1.00507 12.5647 0.73877 13.2698 0.73877 14C0.73877 14.7302 1.00507 15.4353 1.48777 15.9832C1.97046 16.5311 2.6364 16.8841 3.36076 16.9761C4.08512 17.0681 4.81817 16.8928 5.4225 16.483C6.02683 16.0731 6.46096 15.457 6.64351 14.75H11.3565C11.5197 15.3937 11.8928 15.9646 12.4168 16.3724C12.9409 16.7802 13.586 17.0016 14.25 17.0016C14.914 17.0016 15.5591 16.7802 16.0832 16.3724C16.6072 15.9646 16.9804 15.3937 17.1435 14.75H18.75C18.9489 14.75 19.1397 14.671 19.2803 14.5303C19.421 14.3897 19.5 14.1989 19.5 14V8.75C19.5 8.6484 19.4793 8.54787 19.4393 8.4545ZM3.75001 15.5C3.45334 15.5 3.16333 15.412 2.91665 15.2472C2.66998 15.0824 2.47772 14.8481 2.36419 14.574C2.25066 14.2999 2.22095 13.9983 2.27883 13.7074C2.33671 13.4164 2.47957 13.1491 2.68935 12.9393C2.89913 12.7296 3.1664 12.5867 3.45737 12.5288C3.74834 12.4709 4.04994 12.5006 4.32403 12.6142C4.59812 12.7277 4.83239 12.92 4.99721 13.1666C5.16203 13.4133 5.25001 13.7033 5.25001 14C5.25001 14.3978 5.09197 14.7794 4.81067 15.0607C4.52936 15.342 4.14783 15.5 3.75001 15.5ZM14.25 4.25H16.005L17.613 8H14.25V4.25ZM14.25 15.5C13.9533 15.5 13.6633 15.412 13.4167 15.2472C13.17 15.0824 12.9777 14.8481 12.8642 14.574C12.7507 14.2999 12.721 13.9983 12.7788 13.7074C12.8367 13.4164 12.9796 13.1491 13.1893 12.9393C13.3991 12.7296 13.6664 12.5867 13.9574 12.5288C14.2483 12.4709 14.5499 12.5006 14.824 12.6142C15.0981 12.7277 15.3324 12.92 15.4972 13.1666C15.662 13.4133 15.75 13.7033 15.75 14C15.75 14.3978 15.592 14.7794 15.3107 15.0607C15.0294 15.342 14.6478 15.5 14.25 15.5ZM18 13.25H17.1435C16.9783 12.6076 16.6046 12.0381 16.0809 11.6309C15.5573 11.2238 14.9133 11.0018 14.25 11V9.5H18V13.25Z" fill="#0A6E58"/>
</svg>
