<svg width="16" height="13" viewBox="0 0 16 13" fill="none" xmlns="http://www.w3.org/2000/svg">
<path d="M1.14286 5.71408H8V6.85693H1.14286V5.71408ZM0 2.85693H5.71428V3.99979H0V2.85693Z" fill="black"/>
<path d="M15.9538 6.06057L14.2395 2.06057C14.1955 1.9578 14.1222 1.87022 14.0289 1.80867C13.9355 1.74711 13.8262 1.7143 13.7144 1.71429H12.0001V0.571428C12.0001 0.419876 11.9399 0.274531 11.8327 0.167368C11.7256 0.060204 11.5802 0 11.4287 0H2.2858V1.14286H10.8572V8.31771C10.597 8.46911 10.3693 8.67042 10.187 8.91008C10.0048 9.14975 9.87179 9.42305 9.79551 9.71428H6.20466C6.06557 9.17562 5.73481 8.70617 5.27437 8.39394C4.81392 8.0817 4.25541 7.94812 3.70351 8.01822C3.15162 8.08832 2.64424 8.35729 2.27647 8.77472C1.90871 9.19215 1.70581 9.72938 1.70581 10.2857C1.70581 10.842 1.90871 11.3793 2.27647 11.7967C2.64424 12.2141 3.15162 12.4831 3.70351 12.5532C4.25541 12.6233 4.81392 12.4897 5.27437 12.1775C5.73481 11.8652 6.06557 11.3958 6.20466 10.8571H9.79551C9.91982 11.3476 10.2041 11.7825 10.6034 12.0932C11.0027 12.4039 11.4942 12.5726 12.0001 12.5726C12.506 12.5726 12.9975 12.4039 13.3968 12.0932C13.7961 11.7825 14.0803 11.3476 14.2047 10.8571H15.4287C15.5802 10.8571 15.7256 10.7969 15.8327 10.6898C15.9399 10.5826 16.0001 10.4373 16.0001 10.2857V6.28571C16.0001 6.2083 15.9843 6.13171 15.9538 6.06057ZM4.00009 11.4286C3.77405 11.4286 3.55309 11.3615 3.36515 11.236C3.17721 11.1104 3.03072 10.9319 2.94422 10.7231C2.85772 10.5142 2.83509 10.2844 2.87919 10.0627C2.92329 9.84106 3.03213 9.63742 3.19196 9.47759C3.3518 9.31776 3.55543 9.20891 3.77713 9.16481C3.99882 9.12072 4.22861 9.14335 4.43744 9.22985C4.64627 9.31635 4.82476 9.46283 4.95034 9.65077C5.07592 9.83871 5.14294 10.0597 5.14294 10.2857C5.14294 10.5888 5.02253 10.8795 4.80821 11.0938C4.59388 11.3082 4.30319 11.4286 4.00009 11.4286ZM12.0001 2.85714H13.3372L14.5624 5.71428H12.0001V2.85714ZM12.0001 11.4286C11.774 11.4286 11.5531 11.3615 11.3651 11.236C11.1772 11.1104 11.0307 10.9319 10.9442 10.7231C10.8577 10.5142 10.8351 10.2844 10.8792 10.0627C10.9233 9.84106 11.0321 9.63742 11.192 9.47759C11.3518 9.31776 11.5554 9.20891 11.7771 9.16481C11.9988 9.12072 12.2286 9.14335 12.4374 9.22985C12.6463 9.31635 12.8248 9.46283 12.9503 9.65077C13.0759 9.83871 13.1429 10.0597 13.1429 10.2857C13.1429 10.5888 13.0225 10.8795 12.8082 11.0938C12.5939 11.3082 12.3032 11.4286 12.0001 11.4286ZM14.8572 9.71428H14.2047C14.0788 9.22482 13.794 8.79095 13.3951 8.48072C12.9961 8.17048 12.5055 8.0014 12.0001 8V6.85714H14.8572V9.71428Z" fill="black"/>
</svg>
