<svg width="100" height="100" viewBox="0 0 100 100" fill="none" xmlns="http://www.w3.org/2000/svg">
<circle cx="50" cy="50" r="50" fill="#D9D9D9"/>
<path d="M47.7914 34.2499H55.9164L64.8268 25.3124C65.0786 25.0585 65.3781 24.857 65.7082 24.7195C66.0382 24.582 66.3922 24.5112 66.7497 24.5112C67.1073 24.5112 67.4613 24.582 67.7913 24.7195C68.1213 24.857 68.4209 25.0585 68.6727 25.3124L75.6602 32.3269C76.1646 32.8344 76.4477 33.5208 76.4477 34.2363C76.4477 34.9518 76.1646 35.6382 75.6602 36.1457L69.4581 42.3749H47.7914V47.7915C47.7914 48.5098 47.5061 49.1987 46.9982 49.7066C46.4902 50.2145 45.8014 50.4999 45.0831 50.4999C44.3648 50.4999 43.6759 50.2145 43.168 49.7066C42.6601 49.1987 42.3747 48.5098 42.3747 47.7915V39.6665C42.3747 38.2299 42.9454 36.8522 43.9612 35.8364C44.9771 34.8205 46.3548 34.2499 47.7914 34.2499ZM31.5414 47.7915V58.6249L25.3393 64.8269C24.8349 65.3344 24.5518 66.0208 24.5518 66.7363C24.5518 67.4518 24.8349 68.1382 25.3393 68.6457L32.3268 75.6603C32.5786 75.9141 32.8781 76.1156 33.2082 76.2531C33.5382 76.3906 33.8922 76.4614 34.2497 76.4614C34.6073 76.4614 34.9613 76.3906 35.2913 76.2531C35.6213 76.1156 35.9209 75.9141 36.1727 75.6603L47.7914 64.0415H58.6247C59.343 64.0415 60.0319 63.7562 60.5398 63.2483C61.0477 62.7404 61.3331 62.0515 61.3331 61.3332V58.6249H64.0414C64.7597 58.6249 65.4486 58.3395 65.9565 57.8316C66.4644 57.3237 66.7497 56.6348 66.7497 55.9165V53.2082H69.4581C70.1764 53.2082 70.8652 52.9228 71.3732 52.4149C71.8811 51.907 72.1664 51.2181 72.1664 50.4999V47.7915H53.2081V50.4999C53.2081 51.9364 52.6374 53.3142 51.6216 54.33C50.6057 55.3458 49.228 55.9165 47.7914 55.9165H42.3747C40.9381 55.9165 39.5604 55.3458 38.5446 54.33C37.5288 53.3142 36.9581 51.9364 36.9581 50.4999V42.3749L31.5414 47.7915Z" fill="#0A6E58"/>
</svg>
